<svg class="svg-icon" style="width: 1em;height: 1em;vertical-align: middle;fill: currentColor;overflow: hidden;" viewBox="0 0 1024 1024" version="1.1" xmlns="http://www.w3.org/2000/svg"><path d="M745.472 617.55733334v96.768c0 11.264 9.216 20.48 20.48 20.48h97.28c16.384 0 29.184-13.312 29.184-29.184 0-16.384-13.312-29.184-29.184-29.184H803.84v-58.368c0-16.384-13.312-29.184-29.184-29.184-15.872-0.512-29.184 12.288-29.184 28.672zM833.024 412.75733334h58.368V237.65333334c0-64.512-52.736-116.736-116.736-116.736h-116.736V76.37333334c0-16.384-13.312-29.184-29.184-29.184-16.384 0-29.184 13.312-29.184 29.184v44.032H306.688V76.37333334c0-16.384-13.312-29.184-29.184-29.184-16.384 0-29.184 13.312-29.184 29.184v44.032H131.584c-64.512 0-116.736 52.736-116.736 116.736v584.704c0 64.512 52.736 116.736 116.736 116.736h321.536c16.384 0 29.184-13.312 29.184-29.184 0-16.384-13.312-29.184-29.184-29.184H131.584c-32.256 0-58.368-26.112-58.368-58.368V412.75733334h759.808zM73.216 237.65333334c0-32.256 26.112-58.368 58.368-58.368h116.736v29.184c0 16.384 13.312 29.184 29.184 29.184 16.384 0 29.184-13.312 29.184-29.184V178.77333334H599.04v29.184c0 16.384 13.312 29.184 29.184 29.184 16.384 0 29.184-13.312 29.184-29.184V178.77333334h116.736c32.256 0 58.368 26.112 58.368 58.368v116.736H73.216V237.65333334z"  /><path d="M219.136 530.00533334h116.736c16.384 0 29.184 13.312 29.184 29.184 0 16.384-13.312 29.184-29.184 29.184H219.136c-16.384 0-29.184-13.312-29.184-29.184 0-16.384 13.312-29.184 29.184-29.184z m0 175.104h116.736c16.384 0 29.184 13.312 29.184 29.184 0 16.384-13.312 29.184-29.184 29.184H219.136c-16.384 0-29.184-13.312-29.184-29.184s13.312-29.184 29.184-29.184z m739.84-145.92c-17.408-23.552-40.96-44.032-67.072-58.368-17.408-11.776-37.888-17.408-58.368-23.552-17.408-5.632-37.888-8.704-58.368-8.704-128.512 0-233.984 105.472-233.984 233.984 0 70.144 32.256 131.584 78.848 175.616 40.96 35.328 96.256 58.368 155.136 58.368 73.216 0 140.288-35.328 184.32-87.552 32.256-40.96 49.664-90.624 49.664-146.432-0.512-55.808-17.92-102.4-50.176-143.36z m-70.144 277.504c-29.184 26.112-70.144 44.032-114.176 44.032-96.256 0-175.616-78.848-175.616-175.616 0-96.256 78.848-175.616 175.616-175.616 20.48 0 40.96 3.072 58.368 11.776 20.48 8.704 40.96 20.48 58.368 35.328 35.328 32.256 58.368 78.848 58.368 131.584 0.512 49.664-23.04 96.256-60.928 128.512z"  /></svg>