<svg class="svg-icon" style="width: 1em;height: 1em;vertical-align: middle;fill: currentColor;overflow: hidden;" viewBox="0 0 1024 1024" version="1.1" xmlns="http://www.w3.org/2000/svg"><path d="M0 0h1024v1024H0z" fill="#D8D8D8" fill-opacity="0" /><path d="M836.266667 358.4H170.666667v-40.704C170.666667 274.193067 207.906133 238.933333 253.866667 238.933333h499.2C799.0272 238.933333 836.266667 274.193067 836.266667 317.696V358.4z m0 68.266667v253.7984C836.266667 728.814933 799.0272 768 753.066667 768h-499.2C207.906133 768 170.666667 728.814933 170.666667 680.465067V426.666667h665.6z m-614.4 68.266666v85.333334h221.866666v-85.333334H221.866667z" fill="#4B92E3" /><path d="M735.0272 614.1952c6.912 0 12.526933 5.512533 12.526933 12.322133a12.424533 12.424533 0 0 1-12.526933 12.322134h-54.442667v32.426666a16.4352 16.4352 0 0 1-16.554666 16.315734 16.4352 16.4352 0 0 1-16.554667-16.315734v-32.426666h-54.4256a12.424533 12.424533 0 0 1-12.509867-12.322134c0-6.8096 5.597867-12.322133 12.509867-12.322133h54.408533v-30.071467H593.066667a12.561067 12.561067 0 0 1-11.0592-6.0928 12.151467 12.151467 0 0 1 0-12.458666 12.561067 12.561067 0 0 1 11.0592-6.0928h44.4928l-53.128534-74.734934a15.5136 15.5136 0 0 1-0.443733-15.701333 15.991467 15.991467 0 0 1 13.602133-8.2432 16.042667 16.042667 0 0 1 14.045867 7.492267l50.926933 73.966933h2.986667l50.944-73.966933a16.042667 16.042667 0 0 1 14.0288-7.492267 15.991467 15.991467 0 0 1 13.602133 8.2432c2.730667 4.932267 2.56 10.922667-0.426666 15.701333l-53.1456 74.752h44.509866c6.792533 0.136533 12.2368 5.597867 12.2368 12.305067a12.407467 12.407467 0 0 1-12.2368 12.322133h-54.459733v30.071467h54.442667z" fill="#F7F7F7" /></svg>