<svg class="svg-icon" style="width: 1em;height: 1em;vertical-align: middle;fill: currentColor;overflow: hidden;" viewBox="0 0 1024 1024" version="1.1" xmlns="http://www.w3.org/2000/svg"><path d="M219.428571 918.649905V431.030857h780.190477v487.619048c0 53.638095-43.885714 97.52381-97.52381 97.523809H316.952381c-53.638095 0-97.52381-43.885714-97.52381-97.523809z" fill="#CFD8DC" /><path d="M999.619048 333.507048v146.285714H219.428571v-146.285714c0-53.638095 43.885714-97.52381 97.52381-97.52381h585.142857c53.638095 0 97.52381 43.885714 97.52381 97.52381z" fill="#78909C" /><path d="M828.952381 333.507048m-73.142857 0a73.142857 73.142857 0 1 0 146.285714 0 73.142857 73.142857 0 1 0-146.285714 0Z" fill="#37474F" /><path d="M414.47619 333.507048m-73.142857 0a73.142857 73.142857 0 1 0 146.285715 0 73.142857 73.142857 0 1 0-146.285715 0Z" fill="#37474F" /><path d="M828.952381 187.221333c-26.819048 0-48.761905 21.942857-48.761905 48.761905v97.52381c0 26.819048 21.942857 48.761905 48.761905 48.761904s48.761905-21.942857 48.761905-48.761904V235.983238c0-26.819048-21.942857-48.761905-48.761905-48.761905zM414.47619 187.221333c-26.819048 0-48.761905 21.942857-48.761904 48.761905v97.52381c0 26.819048 21.942857 48.761905 48.761904 48.761904s48.761905-21.942857 48.761905-48.761904V235.983238c0-26.819048-21.942857-48.761905-48.761905-48.761905z" fill="#B0BEC5" /><path d="M707.047619 772.36419h97.52381v97.52381h-97.52381zM560.761905 772.36419h97.523809v97.52381h-97.523809zM414.47619 772.36419h97.52381v97.52381h-97.52381zM707.047619 626.078476h97.52381v97.52381h-97.52381zM560.761905 626.078476h97.523809v97.52381h-97.523809zM414.47619 626.078476h97.52381v97.52381h-97.52381z" fill="#90A4AE" /><path d="M316.952381 309.126095m-292.571429 0a292.571429 292.571429 0 1 0 585.142858 0 292.571429 292.571429 0 1 0-585.142858 0Z" fill="#F44336" /><path d="M316.952381 309.126095m-219.428571 0a219.428571 219.428571 0 1 0 438.857142 0 219.428571 219.428571 0 1 0-438.857142 0Z" fill="#EEEEEE" /><path d="M292.571429 138.459429h48.761904v170.666666h-48.761904z" fill="#000000" /><path d="M427.105524 384.707048l-32.743619 32.768-93.086476-93.086477 32.743619-32.743619z" fill="#000000" /><path d="M316.952381 309.126095m-36.571429 0a36.571429 36.571429 0 1 0 73.142858 0 36.571429 36.571429 0 1 0-73.142858 0Z" fill="#000000" /></svg>