<svg class="svg-icon" style="width: 1em; height: 1em;vertical-align: middle;fill: currentColor;overflow: hidden;" viewBox="0 0 1024 1024" version="1.1" xmlns="http://www.w3.org/2000/svg"><path d="M714.752 952.32L620.544 880.64H110.592c-61.44 0-110.592-49.152-110.592-110.592V274.432C0 212.992 49.152 163.84 110.592 163.84h802.816c61.44 0 110.592 49.152 110.592 110.592v495.616c0 61.44-49.152 110.592-110.592 110.592h-108.544v-61.44h108.544c26.624 0 49.152-22.528 49.152-49.152V274.432c0-26.624-22.528-49.152-49.152-49.152H110.592C83.968 225.28 61.44 247.808 61.44 274.432v495.616C61.44 796.672 83.968 819.2 110.592 819.2h530.432l110.592 83.968-36.864 49.152z" fill="#3988FF" /><path d="M163.84 266.24h266.24c34.816 0 61.44 26.624 61.44 61.44v389.12c0 34.816-26.624 61.44-61.44 61.44H163.84c-34.816 0-61.44-26.624-61.44-61.44V327.68c0-34.816 26.624-61.44 61.44-61.44z" fill="#DAE9FF" /><path d="M727.04 450.56h-165.888c-16.384 0-30.72-14.336-30.72-30.72s14.336-30.72 30.72-30.72h165.888c16.384 0 30.72 14.336 30.72 30.72s-12.288 30.72-30.72 30.72z" fill="#3889FF" /><path d="M851.968 552.96H540.672c-12.288 0-20.48-8.192-20.48-20.48s8.192-20.48 20.48-20.48h309.248c12.288 0 20.48 8.192 20.48 20.48 2.048 12.288-8.192 20.48-18.432 20.48zM851.968 655.36H540.672c-12.288 0-20.48-8.192-20.48-20.48s8.192-20.48 20.48-20.48h309.248c12.288 0 20.48 8.192 20.48 20.48s-8.192 20.48-18.432 20.48zM235.52 471.04c-16.384 0-30.72-14.336-30.72-30.72s14.336-30.72 30.72-30.72 30.72 14.336 30.72 30.72-14.336 30.72-30.72 30.72z m143.36 0c-16.384 0-30.72-14.336-30.72-30.72s14.336-30.72 30.72-30.72 30.72 14.336 30.72 30.72-14.336 30.72-30.72 30.72zM245.76 552.96c0-12.288 8.192-20.48 20.48-20.48s20.48 8.192 20.48 20.48 8.192 20.48 20.48 20.48 20.48-8.192 20.48-20.48 8.192-20.48 20.48-20.48 20.48 8.192 20.48 20.48c0 34.816-26.624 61.44-61.44 61.44s-61.44-26.624-61.44-61.44z" fill="#3988FF" /></svg>