<svg class="svg-icon" style="width: 1em; height: 1em;vertical-align: middle;fill: currentColor;overflow: hidden;" viewBox="0 0 1024 1024" version="1.1" xmlns="http://www.w3.org/2000/svg"><path d="M781.2 962H242.8c-44.5 0-80.7-36.2-80.7-80.7v-646c0-44.5 36.2-80.7 80.7-80.7h538.3c44.5 0 80.7 36.2 80.7 80.7v646c0.1 44.5-36.1 80.7-80.6 80.7zM242.8 181.4c-29.7 0-53.8 24.1-53.8 53.8v646c0 29.7 24.1 53.8 53.8 53.8h538.3c29.7 0 53.8-24.1 53.8-53.8v-646c0-29.7-24.1-53.8-53.8-53.8H242.8z" fill="#41B3F9" /><path d="M660.8 115.2h-99.7c-4.8-22.7-25-39.7-49.1-39.7s-44.3 17-49.1 39.7h-99.7c-9.1 0-16.5 7.4-16.5 16.5v73.2c0 9.1 7.4 16.5 16.5 16.5h297.6c9.1 0 16.5-7.4 16.5-16.5v-73.2c0-9.1-7.4-16.5-16.5-16.5z" fill="#FFFF27" /><path d="M660.8 234.9H363.2c-16.5 0-30-13.5-30-30v-73.2c0-16.5 13.5-30 30-30H453c9.6-23.5 32.9-39.7 59-39.7s49.4 16.2 59 39.7h89.8c16.5 0 30 13.5 30 30v73.2c0 16.5-13.5 30-30 30zM363.2 128.6c-1.7 0-3.1 1.4-3.1 3.1v73.2c0 1.7 1.4 3.1 3.1 3.1h297.6c1.7 0 3.1-1.4 3.1-3.1v-73.2c0-1.7-1.4-3.1-3.1-3.1h-99.7c-6.4 0-11.8-4.4-13.2-10.7-3.6-16.8-18.7-29-35.9-29s-32.3 12.2-35.9 29c-1.3 6.2-6.8 10.7-13.2 10.7h-99.7z" fill="#41B3F9" /><path d="M707.7 397.9H316.3c-7.4 0-13.5-6-13.5-13.5s6-13.5 13.5-13.5h391.4c7.4 0 13.5 6 13.5 13.5s-6.1 13.5-13.5 13.5zM624.5 572.3H316.3c-7.4 0-13.5-6-13.5-13.5 0-7.4 6-13.5 13.5-13.5h308.2c7.4 0 13.5 6 13.5 13.5-0.1 7.5-6.1 13.5-13.5 13.5zM618.3 746.8h-302c-7.4 0-13.5-6-13.5-13.5 0-7.4 6-13.5 13.5-13.5h302c7.4 0 13.5 6 13.5 13.5-0.1 7.5-6.1 13.5-13.5 13.5z" fill="#41B3F9" /></svg>