<svg class="svg-icon" style="width: 1em;height: 1em;vertical-align: middle;fill: currentColor;overflow: hidden;" viewBox="0 0 1024 1024" version="1.1" xmlns="http://www.w3.org/2000/svg"><path d="M169.658182 1024C114.222545 1024 69.818182 978.385455 69.818182 922.717091V101.282909C69.818182 45.614545 114.222545 0 169.658182 0h523.170909l240.034909 246.690909V930.909091a93.090909 93.090909 0 0 1-93.090909 93.090909H169.658182zM653.498182 93.090909H169.658182C166.167273 93.090909 162.909091 96.488727 162.909091 101.282909v821.434182c0 4.794182 3.304727 8.192 6.749091 8.192h670.114909V284.485818L653.544727 93.090909z" fill="#2CB18D" /><path d="M777.867636 820.782545h-6.190545v-261.492363a22.574545 22.574545 0 0 0-22.807273-22.155637h-107.752727c-12.567273 0-22.807273 9.960727-22.807273 22.155637v261.492363h-38.4V340.247273a22.574545 22.574545 0 0 0-22.807273-22.202182H449.349818c-12.567273 0-22.807273 10.007273-22.807273 22.202182v480.535272h-38.4V440.273455a22.574545 22.574545 0 0 0-22.807272-22.155637H257.582545c-12.567273 0-22.807273 9.960727-22.807272 22.155637v380.50909H228.538182a10.146909 10.146909 0 0 0-10.24 9.914182v31.232c0 5.492364 4.654545 9.960727 10.24 9.960728h549.329454c5.632 0 10.24-4.468364 10.24-9.960728v-31.185454a10.146909 10.146909 0 0 0-10.24-9.960728z" fill="#E01313" /><path d="M284.206545 250.181818c36.026182 0 65.396364-28.532364 65.396364-64S320.232727 122.181818 284.206545 122.181818 218.810182 150.714182 218.810182 186.181818s29.370182 64 65.396363 64z m0-34.909091c-16.942545 0-30.487273-13.125818-30.487272-29.090909s13.498182-29.090909 30.487272-29.090909c16.942545 0 30.487273 13.125818 30.487273 29.090909s-13.498182 29.090909-30.487273 29.090909zM452.049455 250.181818c36.026182 0 65.396364-28.532364 65.396363-64s-29.370182-64-65.396363-64S386.653091 150.714182 386.653091 186.181818s29.370182 64 65.396364 64z m0-34.909091c-16.942545 0-30.487273-13.125818-30.487273-29.090909s13.498182-29.090909 30.487273-29.090909c16.942545 0 30.487273 13.125818 30.487272 29.090909s-13.498182 29.090909-30.487272 29.090909zM619.892364 250.181818c36.026182 0 65.396364-28.532364 65.396363-64s-29.370182-64-65.396363-64c-35.979636 0-65.396364 28.532364-65.396364 64s29.416727 64 65.396364 64z m0-34.909091c-16.942545 0-30.487273-13.125818-30.487273-29.090909s13.498182-29.090909 30.487273-29.090909c16.989091 0 30.487273 13.125818 30.487272 29.090909s-13.498182 29.090909-30.487272 29.090909z" fill="#2CB18D" /></svg>