<svg class="svg-icon" style="width: 1em; height: 1em;vertical-align: middle;fill: currentColor;overflow: hidden;" viewBox="0 0 1024 1024" version="1.1" xmlns="http://www.w3.org/2000/svg"><path d="M980.3 506.4c-0.8-62.8-14.1-124-39.5-182-39.8-91.1-106-165.8-191.3-216.2-8-4.7-17.1-7.2-26.3-7.2-5.9 0-11.7 1-17.2 2.9-4.2 1.2-8.2 2.9-11.9 5l-47.5 27.4c-0.2 0.1-0.3-0.1-0.2-0.2 2.6-3.5 4.7-7.5 6.4-11.7 5.5-14.1 4.6-29.8-2.4-43.2-7.1-13.4-19.5-23-34.3-26.4-34.5-8-69.8-12-105.1-12-64.5 0-127.4 13.2-187 39.3-57.9 25.3-109.1 61.3-152.2 106.8-41.6 44-73.9 95-96 151.7-22.1 56.7-32.9 116.2-32.1 176.8 0.8 62.8 14.1 124 39.5 182 74.8 171 243.5 281.5 429.9 281.5 64.5 0 127.4-13.2 187-39.3 57.9-25.3 109.1-61.3 152.2-106.8 41.6-44 73.9-95 96-151.7 22-56.5 32.8-116 32-176.7zM721 213.6h0.2c14.5 10.2 28.4 21.5 41.2 33.7 13.3 12.7 24 25.6 29 30.9 17.7 21.2 32.9 44.4 45.5 69.4 0 0.1 0 0.2-0.1 0.2l-42.4 24.5h-0.2l-82.9-47.9-90.9-52.5c-0.1-0.1-0.1-0.2 0-0.3l100.6-58z m-99.2 215.9c6.3-3.6 11.3-9.2 13.7-16 1.4-3.7 1.9-7.6 1.8-11.4 0-0.1 0.1-0.2 0.2-0.1l52.6 30.3c0.1 0.1 0.1 0.2 0 0.3L513 534.7h-0.2l-38-21.9c-0.1-0.1-0.1-0.3 0-0.3 7.4-2.1 13.9-7 17.9-13.9 0.9-1.5 1.6-3 2.1-4.6 0-0.1 0.1-0.1 0.2-0.1 1.7 0.3 3.3 0.4 5 0.4h0.4c5.3 0 10.4-1.4 15-4l36.8-21.3c5.9-3.4 10.4-8.7 12.9-14.9 0-0.1 0.1-0.1 0.2-0.1 1.6 0.3 3.2 0.4 4.8 0.4h0.4c5.3 0 10.4-1.4 15-4l36.3-20.9z m154.8 334c-33.4 35.4-73.2 63.3-118.3 83-45 19.7-92.6 30-141.2 30.5h-4.2c-45.6 0-90.5-8.5-133.2-25.3-44.1-17.3-83.9-42.6-118.1-75.1-35.4-33.6-63.4-73.6-83.2-118.8-19.8-45.2-30.1-92.9-30.8-141.7-0.6-47.2 7.8-93.5 25-137.7 17.2-44.1 42.3-83.9 74.7-118.1 33.4-35.4 73.2-63.3 118.3-83 45-19.7 92.6-30 141.2-30.5h4.2c27.5 0 54.9 3.1 81.6 9.3 3.9 0.9 7.8 1.3 11.7 1.3 1.9 0 3.7-0.1 5.5-0.3 0.2 0 0.2 0.2 0.1 0.3L209 389.1c-22.7 13.1-32.1 41.2-21.9 65.3 0.1 0.2 0.2 0.5 0.3 0.7 0 0.1 0.2 0.4 0.2 0.4 4.5 10.1 11.9 18.4 21.5 23.9l7.4 4.3c0.1 0.1 0.1 0.2 0 0.3l-0.5 0.3c-11.9 6.8-20.9 17.8-24.8 31-3.8 13.2-2.4 27.1 4.2 39.2 0.1 0.2 0.2 0.4 0.4 0.6 0.1 0.2 0.3 0.5 0.4 0.7 0 0 0.2 0.4 0.4 0.6 0.3 0.5 0.6 1 0.9 1.4l0.2 0.3c4.4 6.9 10.6 12.7 17.7 16.8l3 1.8c0.1 0.1 0.1 0.2 0 0.3l-3 1.7c-7.8 4.5-14.3 11-18.8 18.7-0.1 0.2-0.2 0.3-0.3 0.4l-0.3 0.6c-0.1 0.2-0.2 0.4-0.4 0.7-6.5 11.9-8 25.7-4.3 38.8 3.7 13.1 12.2 24.1 24.1 31L487 825.7c1.8 1 3.6 1.9 5.6 2.8l0.5 0.2c0.5 0.2 1 0.4 1.4 0.6 0.5 0.2 1.1 0.4 1.6 0.6l0.5 0.2c5.4 1.8 10.9 2.7 16.6 2.7 9.1 0 18.1-2.4 26-7l311.9-180.1c0.1-0.1 0.3 0.1 0.2 0.2-17.4 44-42.5 83.6-74.7 117.6zM461 363.7c-0.3 0.7-0.7 1.4-1 2.2 0 0.1-0.1 0.1-0.2 0.1-0.5-0.1-1-0.2-1.5-0.2h-0.3c-0.2 0-0.4 0-0.5-0.1l3.5-2z m-70.3 40.6c-0.3 0.8-0.7 1.6-1 2.3-0.8-0.1-1.7-0.3-2.5-0.3l3.5-2z m-49.4 28.5l-0.9 2.1c0 0.1-0.1 0.1-0.2 0.1l-1.3-0.8 2.4-1.4z" fill="#FFF4A1" /><path d="M471.8 475l-82.2-47.4c-1.3-0.8-2.8-1.2-4.2-1.3h-1.6c-1.4 0.1-2.9 0.5-4.2 1.3l-16.1 9.3c-4.8 2.8-6.4 8.9-3.7 13.7 2.8 4.8 8.9 6.4 13.7 3.7l11.1-6.4 77.2 44.6c4.8 2.8 10.9 1.1 13.7-3.7 2.7-5 1.1-11.1-3.7-13.8zM546 438.1c-1.1-1.9-2.7-3.3-4.5-4.1l-80.9-46.7c-1.4-0.9-2.9-1.5-4.5-1.7h-0.1c-0.2 0-0.5 0-0.7-0.1h-0.8c-0.2 0-0.5 0-0.7 0.1h-0.1c-1.6 0.2-3.2 0.8-4.5 1.7l-36 20.8c-3.1 1.8-4.9 5-5 8.4v0.6c0.1 3.4 1.9 6.6 5 8.4l82.2 47.4c1.6 0.9 3.4 1.4 5.2 1.3 1.8 0 3.5-0.4 5.2-1.3l36.8-21.3c4.5-2.6 6.1-8.7 3.4-13.5z m-45.7 14.8l-62.5-36.1 16.9-9.8 62.5 36.1-16.9 9.8zM616 398.2c-1.1-1.9-2.7-3.3-4.5-4.1l-80.9-46.7c-1.4-0.9-2.9-1.5-4.5-1.7h-0.1c-0.2 0-0.5 0-0.7-0.1h-0.8c-0.2 0-0.5 0-0.7 0.1h-0.1c-1.6 0.2-3.2 0.8-4.5 1.7l-36 20.8c-3.1 1.8-4.9 5-5 8.4v0.6c0.1 3.4 1.9 6.6 5 8.4l82.2 47.4c1.6 0.9 3.4 1.4 5.2 1.3 1.8 0 3.5-0.4 5.2-1.3l36.8-21.3c4.5-2.6 6.1-8.7 3.4-13.5zM570.3 413l-62.5-36.1 16.9-9.8 62.5 36.1-16.9 9.8z" fill="#FF9E3E" /><path d="M922.5 332.4c-39.4-90-104.6-160.6-183.1-207-8.7-5.1-18.7-5.6-27.3-2.4-2.7 0.7-5.4 1.8-8 3.3L219 406.4c-14.2 8.2-19.7 25.6-13.4 40.3 0.1 0.2 0.1 0.3 0.2 0.5 0 0 0 0.1 0.1 0.1 2.6 6 7.2 11.3 13.3 14.8l37.7 21.8-31.6 18.3c-15.1 8.7-20.4 27.8-12.1 42.9 0.1 0.2 0.2 0.3 0.3 0.5 0.1 0.1 0.1 0.2 0.2 0.3 0.1 0.1 0.1 0.2 0.2 0.3 0.2 0.3 0.4 0.7 0.6 1 0 0.1 0.1 0.1 0.1 0.2 2.7 4.1 6.3 7.7 10.9 10.3l33.3 19.2-33.5 19.1c-5 2.9-9 7-11.7 11.7 0 0.1-0.1 0.1-0.1 0.2s-0.1 0.1-0.1 0.2c-0.1 0.2-0.2 0.4-0.3 0.5-8.3 15.2-3 34.3 12.1 43l271.6 156.8c1.1 0.6 2.3 1.2 3.4 1.7 0.1 0 0.2 0.1 0.3 0.1 0.3 0.1 0.6 0.3 0.9 0.4 0.3 0.1 0.6 0.2 1 0.4 0.1 0 0.2 0.1 0.3 0.1 8.4 2.8 17.9 2.2 26.2-2.6l356.7-206c-4.1 17-9.3 33.7-15.7 50.2-18.2 46.6-44.7 88.5-78.8 124.6-35.3 37.3-77.3 66.8-124.8 87.6-47.5 20.8-97.7 31.6-149 32.2-49.7 0.6-98.4-8.4-144.9-26.7-46.5-18.3-88.4-44.9-124.5-79.2-37.4-35.5-66.9-77.6-87.7-125.3s-31.8-98-32.4-149.5c-0.6-49.8 8.2-98.6 26.4-145.2 18.2-46.6 44.7-88.5 78.8-124.6 35.3-37.3 77.3-66.8 124.8-87.6s97.7-31.6 149-32.2c30.6-0.3 60.9 2.9 90.5 9.8 15.5 3.6 31.2-4.7 37-19.5 7.1-18.2-3.6-38.4-22.6-42.8-90.6-20.8-188.2-13.8-279.7 26.2C105.3 199.7 2.1 464.3 101.5 691.6c99.4 227.3 363.8 331.1 590.5 231.9s329.9-363.8 230.5-591.1zM512.9 557.9L298.8 434.2l217.4-125.5 214.1 123.6-217.4 125.6z m371.5-140.6c1.4 5.3 2.6 10.6 3.7 15.9l-74.8 43.2v-18.1l71.1-41z m-21.5-61.5l-68.6 39.6-214.1-123.6L722 189.9c19.2 12.6 37.4 26.9 54.2 42.9 36.7 34.9 65.9 76.3 86.7 123zM497 622.6c11 6.4 24.3 5.4 34.1-1.3l218.2-126v18.1L512.9 649.9 305 529.9l15.7-9L497 622.6z m0.1 92c11.2 6.4 24.6 5.4 34.5-1.6l217.8-125.7v20.1L512.9 743.9 305 623.9l6.8-4c3.4-1.9 6.2-4.4 8.6-7.2l176.7 101.9z m316.2-144.2v-20.1l82.9-47.9c0 1.7 0.1 3.4 0.1 5.1 0.1 5 0 10-0.1 15l-82.9 47.9z" fill="#FF9E3E" /></svg>