<svg class="svg-icon" style="width: 1em; height: 1em;vertical-align: middle;fill: currentColor;overflow: hidden;" viewBox="0 0 1024 1024" version="1.1" xmlns="http://www.w3.org/2000/svg"><path d="M763.6981333333333 224.66560000000004l-260.4576 51.352533333333334c-3.259733333333333 0.6634666666666666-6.1706666666666665 1.4528-8.891733333333333 2.405333333333333-8.6016 0.9482666666666667-17.051733333333335 4.521599999999999-23.662933333333335 11.133866666666668L143.49973333333332 616.7754666666666c-15.376 15.376-15.376 40.33813333333333 0 55.715199999999996l224.10346666666666 224.10453333333334c15.344 15.377066666666666 40.276266666666665 15.377066666666666 55.65333333333333 0l327.28-327.24906666666664c6.6112-6.612266666666667 10.187733333333334-15.029333333333334 11.133866666666668-23.6992 0.9194666666666667-2.7488 1.7738666666666667-5.5957333333333334 2.3744-8.792533333333333l51.352533333333334-260.52053333333333c6.989866666666667-35.406933333333335-16.3232-58.6592-51.699200000000005-51.66826666666667zM504.60266666666666 660.5941333333334c-2.5002666666666666 16.770133333333334-12.591999999999999 34.01173333333333-30.343466666666664 51.76213333333333-16.232533333333333 16.200533333333333-32.1472 26.893866666666668-47.775999999999996 32.05226666666667l-30.279466666666668-30.311466666666668c20.8512-1.9306666666666668 38.5376-10.189866666666667 53.062400000000004-24.677333333333333 8.254933333333334-8.2592 13.0016-15.882666666666667 14.2976-22.81386666666667 1.3301333333333334-6.9930666666666665-0.25279999999999997-12.72-4.7114666666666665-17.17866666666667-3.8261333333333334-3.8314666666666666-9.079466666666667-5.789866666666667-15.819733333333332-5.947733333333333-6.7104-0.09493333333333333-20.0288 3.954133333333333-39.995733333333334 12.181333333333333-31.480533333333334 12.749866666666666-56.2208 10.155733333333334-74.16106666666666-7.784533333333333-13.160533333333332-13.1616-18.381866666666667-28.41173333333333-15.628799999999998-45.75146666666667 2.7530666666666668-17.3088 12.3712-34.2016 28.91626666666667-50.750933333333336 13.829333333333333-13.825066666666666 27.241600000000002-23.632 40.24853333333333-29.453866666666666l28.3168 28.346666666666664c-15.946666666666665 3.0389333333333335-30.311466666666668 10.9504-43.02826666666667 23.700266666666668-7.469866666666666 7.4336-12.023466666666668 14.744533333333333-13.796266666666666 21.925333333333334-1.7706666666666666 7.149866666666667-0.3488 13.0016 4.241066666666667 17.624533333333332 3.6693333333333333 3.6362666666666663 8.571733333333333 5.4752 14.709333333333332 5.505066666666666 6.1109333333333336 0.032 17.813333333333333-3.3215999999999997 35.08906666666667-10.127999999999998 20.09173333333333-8.033066666666667 36.16426666666667-11.322666666666667 48.12479999999999-9.9008 11.991466666666668 1.4218666666666666 22.589866666666666 6.769066666666666 31.89013333333333 16.039466666666666 13.6064 13.5744 19.143466666666665 28.794666666666668 16.644266666666667 45.5616z m210.97173333333333-238.40319999999997c-26.988799999999998 27.021866666666664-70.71466666666667 26.957866666666664-97.73440000000001 0.032-26.925866666666664-27.0208-26.989866666666668-70.77653333333333 0-97.73333333333333 27.01973333333333-26.989866666666668 70.7456-26.989866666666668 97.73440000000001 0 26.988799999999998 26.956799999999998 26.988799999999998 70.74453333333332 0 97.70133333333334z"  /></svg>