<svg class="svg-icon" style="width: 1em;height: 1em;vertical-align: middle;fill: currentColor;overflow: hidden;" viewBox="0 0 1024 1024" version="1.1" xmlns="http://www.w3.org/2000/svg"><path d="M531.617946 1023.99872h-42.666613a127.99984 127.99984 0 0 1-122.879847-93.439883 42.666613 42.666613 0 0 1 82.346564-23.039971 42.666613 42.666613 0 0 0 42.666613 31.146627h42.666614a42.666613 42.666613 0 0 0 42.666613-31.146627l19.626642-71.253245a85.333227 85.333227 0 0 1 41.813281-55.039931c6.826658-2.986663 13.653316-6.826658 20.479975-10.666653s13.22665-8.106657 19.626642-12.373318a85.333227 85.333227 0 0 1 70.826578-13.653316l72.106577 18.346643a42.666613 42.666613 0 0 0 47.35994-20.053308l20.479975-35.413289a42.666613 42.666613 0 0 0-6.399992-51.199936l-52.053269-52.479934a85.333227 85.333227 0 0 1-21.759972-67.413249 305.919618 305.919618 0 0 0 0-48.213273 85.333227 85.333227 0 0 1 23.893303-66.986583l52.053268-52.906601a42.666613 42.666613 0 0 0 6.399992-51.199936l-20.479974-35.413289a42.666613 42.666613 0 0 0-47.786607-20.053308l-72.106576 18.346643A85.333227 85.333227 0 0 1 680.524427 266.666333a298.666293 298.666293 0 0 0-42.666614-23.893303 85.333227 85.333227 0 0 1-42.666613-54.186599l-20.053308-72.106577a42.666613 42.666613 0 0 0-42.666614-31.146627h-42.666613a42.666613 42.666613 0 0 0-42.666613 31.146627l-17.066646 71.253245A85.333227 85.333227 0 0 1 381.858133 242.77303c-6.826658 3.413329-14.079982 6.826658-20.479974 10.666653s-13.22665 8.106657-19.626642 12.373318a85.333227 85.333227 0 0 1-70.826578 13.653316l-71.253245-18.346643a42.666613 42.666613 0 0 0-47.35994 20.053308l-20.479975 35.413289a42.666613 42.666613 0 0 0 6.399992 51.199936l52.053268 52.479934a85.333227 85.333227 0 0 1 23.893304 67.413249 296.106297 296.106297 0 0 0 0 48.213273 85.333227 85.333227 0 0 1-23.893304 66.986583l-52.479934 53.333267a42.666613 42.666613 0 0 0-6.399992 51.199936l20.479974 35.413289a42.666613 42.666613 0 0 0 47.786607 20.053308 42.666613 42.666613 0 0 1 21.333307 82.77323 127.99984 127.99984 0 0 1-142.933155-60.159925l-20.479974-35.839955A127.99984 127.99984 0 0 1 77.218514 597.332587l52.053268-52.906601a347.732899 347.732899 0 0 1 0-62.293255L77.218514 426.666133A127.99984 127.99984 0 0 1 57.591872 273.492991l20.479974-35.413289a127.99984 127.99984 0 0 1 142.506489-59.733258l72.106576 18.346643a311.892943 311.892943 0 0 1 26.879967-17.493311q13.22665-7.67999 27.306632-14.079982l20.906641-71.253245A127.99984 127.99984 0 0 1 491.084663 0h42.666614a127.99984 127.99984 0 0 1 122.879846 93.439883l20.053308 72.106577a352.852892 352.852892 0 0 1 54.613266 30.719961l72.106576-17.919977a127.99984 127.99984 0 0 1 142.506489 60.159925l20.479974 35.413289a127.99984 127.99984 0 0 1-19.626642 153.599808L893.857493 480.852732a354.559557 354.559557 0 0 1 0 62.293256L945.484095 597.332587a127.99984 127.99984 0 0 1 19.626643 154.026474l-20.479975 35.413289a127.99984 127.99984 0 0 1-142.506488 59.733259l-72.106577-18.346644a311.892943 311.892943 0 0 1-26.879966 17.493311c-8.959989 5.119994-17.919978 9.813321-27.306633 14.079983l-20.479974 71.253244a127.99984 127.99984 0 0 1-123.733179 93.013217zM723.19104 511.99936a213.333067 213.333067 0 1 0-213.333067 213.333067 213.333067 213.333067 0 0 0 213.333067-213.333067z m-85.333227 0a127.99984 127.99984 0 1 1-127.99984-127.99984 127.99984 127.99984 0 0 1 127.99984 127.99984z" fill="#3E2AD1" /></svg>