<svg class="svg-icon" style="width: 1em; height: 1em;vertical-align: middle;fill: currentColor;overflow: hidden;" viewBox="0 0 1024 1024" version="1.1" xmlns="http://www.w3.org/2000/svg"><path d="M514 926.1c-228.3 0-414-185.7-414-414s185.7-414 414-414 414 185.7 414 414-185.7 414-414 414z m0-771.3c-197 0-357.3 160.3-357.3 357.3S317 869.4 514 869.4s357.3-160.3 357.3-357.3S711 154.8 514 154.8z" fill="#3468F7" /><path d="M736.5 477.7h-445V421h359l-29.8-22.1 33.7-45.6 98.9 73.2c9.8 7.3 13.9 20 10.1 31.7-3.8 11.7-14.7 19.5-26.9 19.5zM373.6 670.9l-98.9-73.2c-9.8-7.3-13.9-20-10.1-31.7 3.8-11.6 14.7-19.5 26.9-19.5h445v56.7h-359l29.8 22.1-33.7 45.6z" fill="#3468F7" /></svg>